<svg width="146" height="56" viewBox="0 0 146 56" fill="none" xmlns="http://www.w3.org/2000/svg">
<rect x="0.493741" y="0.493741" width="145.013" height="55.0125" rx="14.3185" fill="url(#paint0_linear_351_430)" fill-opacity="0.5"/>
<rect x="0.493741" y="0.493741" width="145.013" height="55.0125" rx="14.3185" stroke="url(#paint1_linear_351_430)" stroke-width="0.987483" style="mix-blend-mode:overlay"/>
<g filter="url(#filter0_d_351_430)">
<path d="M24.91 34.5H18.0082V22.5162H24.91V24.5982H20.5493V27.2294H24.6067V29.3114H20.5493V32.4016H24.91V34.5ZM29.2833 29.8196L26.3324 25.3359H29.1685L30.9472 28.254L32.7423 25.3359H35.5785L32.5948 29.8196L35.7178 34.5H32.8735L30.9472 31.3606L29.0128 34.5H26.1766L29.2833 29.8196ZM42.3944 25.1638C43.4272 25.1638 44.2606 25.5654 44.8944 26.3687C45.5338 27.172 45.8535 28.3496 45.8535 29.9016C45.8535 30.9398 45.7032 31.8142 45.4027 32.5246C45.1021 33.2295 44.6868 33.7623 44.1567 34.1229C43.6267 34.4836 43.0174 34.6639 42.3288 34.6639C41.8862 34.6639 41.5064 34.6093 41.1895 34.5C40.8725 34.3852 40.602 34.2404 40.378 34.0656C40.1539 33.8852 39.9599 33.694 39.796 33.4918H39.6648C39.7086 33.7104 39.7413 33.9344 39.7632 34.1639C39.7851 34.3934 39.796 34.6175 39.796 34.8361V38.5329H37.2959V25.3359H39.3288L39.6812 26.5244H39.796C39.9599 26.2785 40.1594 26.0518 40.3944 25.8441C40.6293 25.6364 40.9108 25.4725 41.2386 25.3523C41.572 25.2266 41.9572 25.1638 42.3944 25.1638ZM41.5911 27.1638C41.1539 27.1638 40.8069 27.254 40.5501 27.4343C40.2933 27.6146 40.1047 27.8851 39.9845 28.2458C39.8698 28.6064 39.8069 29.0627 39.796 29.6147V29.8852C39.796 30.4753 39.8506 30.9753 39.9599 31.3852C40.0747 31.795 40.2632 32.1065 40.5255 32.3196C40.7933 32.5327 41.1594 32.6393 41.6239 32.6393C42.0064 32.6393 42.3206 32.5327 42.5665 32.3196C42.8124 32.1065 42.9955 31.795 43.1157 31.3852C43.2414 30.9699 43.3043 30.4644 43.3043 29.8688C43.3043 28.9726 43.1649 28.2977 42.8862 27.8441C42.6075 27.3906 42.1758 27.1638 41.5911 27.1638ZM50.6038 34.5H48.1038V21.7457H50.6038V34.5ZM61.7477 29.9016C61.7477 30.6666 61.6439 31.3442 61.4362 31.9344C61.234 32.5246 60.9362 33.0246 60.5427 33.4344C60.1548 33.8388 59.6848 34.1448 59.1329 34.3525C58.5864 34.5601 57.9689 34.6639 57.2804 34.6639C56.6356 34.6639 56.0427 34.5601 55.5017 34.3525C54.9661 34.1448 54.4989 33.8388 54.1 33.4344C53.7065 33.0246 53.4005 32.5246 53.1819 31.9344C52.9688 31.3442 52.8623 30.6666 52.8623 29.9016C52.8623 28.8851 53.0426 28.0245 53.4033 27.3195C53.7639 26.6146 54.2776 26.0791 54.9443 25.7129C55.611 25.3468 56.4061 25.1638 57.3296 25.1638C58.1875 25.1638 58.9471 25.3468 59.6083 25.7129C60.275 26.0791 60.7968 26.6146 61.1739 27.3195C61.5564 28.0245 61.7477 28.8851 61.7477 29.9016ZM55.4115 29.9016C55.4115 30.5027 55.4771 31.0081 55.6082 31.418C55.7394 31.8278 55.9443 32.1366 56.223 32.3442C56.5017 32.5519 56.8651 32.6557 57.3132 32.6557C57.7558 32.6557 58.1137 32.5519 58.387 32.3442C58.6657 32.1366 58.8679 31.8278 58.9935 31.418C59.1247 31.0081 59.1903 30.5027 59.1903 29.9016C59.1903 29.295 59.1247 28.7922 58.9935 28.3933C58.8679 27.9889 58.6657 27.6857 58.387 27.4835C58.1083 27.2813 57.7449 27.1802 57.2968 27.1802C56.6356 27.1802 56.1547 27.407 55.8541 27.8605C55.559 28.3141 55.4115 28.9944 55.4115 29.9016ZM69.1128 25.1638C69.2385 25.1638 69.3833 25.172 69.5472 25.1883C69.7166 25.1993 69.8533 25.2157 69.9571 25.2375L69.7686 27.5818C69.6866 27.5545 69.5691 27.5354 69.4161 27.5245C69.2686 27.5081 69.1401 27.4999 69.0308 27.4999C68.7084 27.4999 68.3942 27.5409 68.0882 27.6228C67.7876 27.7048 67.5172 27.8387 67.2767 28.0245C67.0363 28.2048 66.845 28.4452 66.7029 28.7458C66.5663 29.0409 66.498 29.4043 66.498 29.836V34.5H63.998V25.3359H65.8914L66.2603 26.8769H66.3833C66.5636 26.5654 66.7876 26.2813 67.0554 26.0244C67.3286 25.7621 67.6374 25.5545 67.9816 25.4015C68.3314 25.243 68.7084 25.1638 69.1128 25.1638ZM75.5845 25.1638C76.4315 25.1638 77.161 25.3277 77.773 25.6556C78.3851 25.978 78.8578 26.4479 79.1911 27.0654C79.5244 27.6829 79.6911 28.437 79.6911 29.3278V30.5409H73.7812C73.8085 31.2458 74.0189 31.8005 74.4123 32.2049C74.8112 32.6038 75.3632 32.8032 76.0681 32.8032C76.6528 32.8032 77.1883 32.7431 77.6747 32.6229C78.161 32.5027 78.661 32.3224 79.1747 32.0819V34.0164C78.7211 34.2404 78.2457 34.4044 77.7485 34.5082C77.2566 34.612 76.6583 34.6639 75.9533 34.6639C75.0353 34.6639 74.2211 34.4945 73.5107 34.1557C72.8057 33.8169 72.2511 33.3005 71.8467 32.6065C71.4478 31.9125 71.2483 31.0382 71.2483 29.9835C71.2483 28.9125 71.4287 28.0217 71.7893 27.3113C72.1554 26.5955 72.6637 26.0599 73.3139 25.7047C73.9642 25.3441 74.7211 25.1638 75.5845 25.1638ZM75.6009 26.9425C75.1145 26.9425 74.7101 27.0982 74.3877 27.4097C74.0708 27.7212 73.8877 28.2103 73.8385 28.8769H77.3468C77.3413 28.5053 77.273 28.1747 77.1419 27.8851C77.0162 27.5955 76.8249 27.366 76.5681 27.1966C76.3167 27.0272 75.9943 26.9425 75.6009 26.9425ZM91.7246 34.5L88.8393 25.0982H88.7655C88.7764 25.3222 88.7928 25.661 88.8147 26.1146C88.842 26.5627 88.8666 27.0408 88.8885 27.549C88.9103 28.0573 88.9213 28.5163 88.9213 28.9261V34.5H86.6507V22.5162H90.1098L92.9459 31.6803H92.9951L96.0034 22.5162H99.4624V34.5H97.0935V28.8278C97.0935 28.4507 97.099 28.0163 97.1099 27.5245C97.1263 27.0326 97.1455 26.5654 97.1673 26.1228C97.1892 25.6747 97.2056 25.3386 97.2165 25.1146H97.1427L94.0525 34.5H91.7246ZM110.803 29.9016C110.803 30.6666 110.699 31.3442 110.492 31.9344C110.289 32.5246 109.992 33.0246 109.598 33.4344C109.21 33.8388 108.74 34.1448 108.188 34.3525C107.642 34.5601 107.024 34.6639 106.336 34.6639C105.691 34.6639 105.098 34.5601 104.557 34.3525C104.021 34.1448 103.554 33.8388 103.155 33.4344C102.762 33.0246 102.456 32.5246 102.237 31.9344C102.024 31.3442 101.918 30.6666 101.918 29.9016C101.918 28.8851 102.098 28.0245 102.459 27.3195C102.819 26.6146 103.333 26.0791 104 25.7129C104.666 25.3468 105.461 25.1638 106.385 25.1638C107.243 25.1638 108.002 25.3468 108.664 25.7129C109.33 26.0791 109.852 26.6146 110.229 27.3195C110.612 28.0245 110.803 28.8851 110.803 29.9016ZM104.467 29.9016C104.467 30.5027 104.532 31.0081 104.664 31.418C104.795 31.8278 105 32.1366 105.278 32.3442C105.557 32.5519 105.92 32.6557 106.369 32.6557C106.811 32.6557 107.169 32.5519 107.442 32.3442C107.721 32.1366 107.923 31.8278 108.049 31.418C108.18 31.0081 108.246 30.5027 108.246 29.9016C108.246 29.295 108.18 28.7922 108.049 28.3933C107.923 27.9889 107.721 27.6857 107.442 27.4835C107.164 27.2813 106.8 27.1802 106.352 27.1802C105.691 27.1802 105.21 27.407 104.909 27.8605C104.614 28.3141 104.467 28.9944 104.467 29.9016ZM118.168 25.1638C118.294 25.1638 118.439 25.172 118.603 25.1883C118.772 25.1993 118.909 25.2157 119.012 25.2375L118.824 27.5818C118.742 27.5545 118.624 27.5354 118.471 27.5245C118.324 27.5081 118.195 27.4999 118.086 27.4999C117.764 27.4999 117.45 27.5409 117.144 27.6228C116.843 27.7048 116.573 27.8387 116.332 28.0245C116.092 28.2048 115.9 28.4452 115.758 28.7458C115.622 29.0409 115.553 29.4043 115.553 29.836V34.5H113.053V25.3359H114.947L115.316 26.8769H115.439C115.619 26.5654 115.843 26.2813 116.111 26.0244C116.384 25.7621 116.693 25.5545 117.037 25.4015C117.387 25.243 117.764 25.1638 118.168 25.1638ZM124.64 25.1638C125.487 25.1638 126.216 25.3277 126.828 25.6556C127.44 25.978 127.913 26.4479 128.246 27.0654C128.58 27.6829 128.746 28.437 128.746 29.3278V30.5409H122.837C122.864 31.2458 123.074 31.8005 123.468 32.2049C123.867 32.6038 124.419 32.8032 125.123 32.8032C125.708 32.8032 126.244 32.7431 126.73 32.6229C127.216 32.5027 127.716 32.3224 128.23 32.0819V34.0164C127.777 34.2404 127.301 34.4044 126.804 34.5082C126.312 34.612 125.714 34.6639 125.009 34.6639C124.091 34.6639 123.276 34.4945 122.566 34.1557C121.861 33.8169 121.306 33.3005 120.902 32.6065C120.503 31.9125 120.304 31.0382 120.304 29.9835C120.304 28.9125 120.484 28.0217 120.845 27.3113C121.211 26.5955 121.719 26.0599 122.369 25.7047C123.02 25.3441 123.776 25.1638 124.64 25.1638ZM124.656 26.9425C124.17 26.9425 123.766 27.0982 123.443 27.4097C123.126 27.7212 122.943 28.2103 122.894 28.8769H126.402C126.397 28.5053 126.328 28.1747 126.197 27.8851C126.072 27.5955 125.88 27.366 125.623 27.1966C125.372 27.0272 125.05 26.9425 124.656 26.9425Z" fill="white"/>
</g>
<defs>
<filter id="filter0_d_351_430" x="8.13347" y="16.8087" width="130.488" height="36.5368" filterUnits="userSpaceOnUse" color-interpolation-filters="sRGB">
<feFlood flood-opacity="0" result="BackgroundImageFix"/>
<feColorMatrix in="SourceAlpha" type="matrix" values="0 0 0 0 0 0 0 0 0 0 0 0 0 0 0 0 0 0 127 0" result="hardAlpha"/>
<feOffset dy="4.93741"/>
<feGaussianBlur stdDeviation="4.93741"/>
<feColorMatrix type="matrix" values="0 0 0 0 0 0 0 0 0 0 0 0 0 0 0 0 0 0 0.25 0"/>
<feBlend mode="normal" in2="BackgroundImageFix" result="effect1_dropShadow_351_430"/>
<feBlend mode="normal" in="SourceGraphic" in2="effect1_dropShadow_351_430" result="shape"/>
</filter>
<linearGradient id="paint0_linear_351_430" x1="12.6815" y1="47.6612" x2="79.4975" y2="-19.8978" gradientUnits="userSpaceOnUse">
<stop stop-color="white" stop-opacity="0.4"/>
<stop offset="1" stop-color="white" stop-opacity="0.07"/>
</linearGradient>
<linearGradient id="paint1_linear_351_430" x1="7.86153" y1="8.69194" x2="16.5755" y2="58.1135" gradientUnits="userSpaceOnUse">
<stop stop-color="white" stop-opacity="0.5"/>
<stop offset="0.352567" stop-color="white" stop-opacity="0"/>
<stop offset="0.646925" stop-color="white" stop-opacity="0"/>
<stop offset="1" stop-color="white" stop-opacity="0.54"/>
</linearGradient>
</defs>
</svg>
