<svg width="114" height="93" viewBox="0 0 114 93" fill="none" xmlns="http://www.w3.org/2000/svg">
<g clip-path="url(#clip0_127_339)">
<path d="M10.8267 80.9746C10.7675 79.8494 10.6945 78.4976 10.7063 77.4926H10.6708C10.3945 78.4385 10.059 79.4435 9.65248 80.5549L8.2276 84.4665H7.43621L6.12974 80.6259C5.74688 79.4888 5.42322 78.4484 5.19429 77.4907H5.17061C5.14693 78.4957 5.08575 79.8475 5.0147 81.0554L4.79959 84.5118H3.80493L4.36739 76.4482H5.69754L7.07506 80.348C7.41056 81.3412 7.68685 82.226 7.89012 83.0634H7.92565C8.12892 82.2496 8.41706 81.3648 8.77624 80.348L10.213 76.4482H11.5431L12.0464 84.5118H11.028L10.8248 80.9707L10.8267 80.9746Z" fill="white"/>
<path d="M18.804 80.7362H15.6641V83.6428H19.1631V84.5157H14.6221V76.4521H18.9836V77.3251H15.6641V79.8731H18.804V80.7342V80.7362Z" fill="white"/>
<path d="M23.2114 77.3384H20.7544V76.4536H26.7322V77.3384H24.2633V84.5152H23.2095V77.3384H23.2114Z" fill="white"/>
<path d="M28.6023 76.5606C29.1292 76.4522 29.8831 76.3931 30.6034 76.3931C31.7185 76.3931 32.4368 76.596 32.9401 77.0512C33.3486 77.4099 33.5756 77.9597 33.5756 78.5824C33.5756 79.6465 32.9046 80.3539 32.054 80.6396V80.6751C32.6776 80.8899 33.0486 81.4653 33.2401 82.3028C33.5026 83.428 33.696 84.2044 33.8637 84.5158H32.7862C32.6539 84.2891 32.4743 83.5955 32.2474 82.5905C32.0086 81.4771 31.5764 81.0594 30.6291 81.0239H29.6463V84.5177H28.6043V76.5625L28.6023 76.5606ZM29.6443 80.2337H30.71C31.8251 80.2337 32.5316 79.6228 32.5316 78.7026C32.5316 77.6621 31.7777 77.2069 30.6745 77.1951C30.1712 77.1951 29.8121 77.2424 29.6443 77.2916V80.2337Z" fill="white"/>
<path d="M37.0584 76.4521V84.5157H36.0164V76.4521H37.0584Z" fill="white"/>
<path d="M45.4954 84.2514C45.1126 84.4425 44.3449 84.6337 43.362 84.6337C41.0866 84.6337 39.3716 83.1971 39.3716 80.5546C39.3716 77.912 41.0846 76.3198 43.589 76.3198C44.5955 76.3198 45.231 76.5346 45.5053 76.6785L45.2547 77.5278C44.86 77.3366 44.2955 77.1928 43.6245 77.1928C41.7319 77.1928 40.4728 78.4007 40.4728 80.5191C40.4728 82.4936 41.6115 83.7607 43.5752 83.7607C44.2107 83.7607 44.856 83.6287 45.2764 83.4257L45.4915 84.2514H45.4954Z" fill="white"/>
<path d="M52.3218 77.3384H49.8647V76.4536H55.8425V77.3384H53.3737V84.5152H52.3198V77.3384H52.3218Z" fill="white"/>
<path d="M57.7124 76.5606C58.2393 76.4522 58.9932 76.3931 59.7136 76.3931C60.8286 76.3931 61.547 76.596 62.0502 77.0512C62.4587 77.4099 62.6857 77.9597 62.6857 78.5824C62.6857 79.6465 62.0147 80.3539 61.1641 80.6396V80.6751C61.7877 80.8899 62.1588 81.4653 62.3502 82.3028C62.6127 83.428 62.8061 84.2044 62.9738 84.5158H61.8963C61.764 84.2891 61.5844 83.5955 61.3575 82.5905C61.1187 81.4771 60.6865 81.0594 59.7392 81.0239H58.7564V84.5177H57.7144V76.5625L57.7124 76.5606ZM58.7544 80.2337H59.8201C60.9352 80.2337 61.6417 79.6228 61.6417 78.7026C61.6417 77.6621 60.8878 77.2069 59.7846 77.1951C59.2814 77.1951 58.9222 77.2424 58.7544 77.2916V80.2337Z" fill="white"/>
<path d="M69.3062 80.7362H66.1663V83.6428H69.6653V84.5157H65.1243V76.4521H69.4857V77.3251H66.1663V79.8731H69.3062V80.7342V80.7362Z" fill="white"/>
<path d="M76.1702 80.7362H73.0303V83.6428H76.5294V84.5157H71.9883V76.4521H76.3498V77.3251H73.0303V79.8731H76.1702V80.7342V80.7362Z" fill="white"/>
<path d="M82.364 76.4531H83.406V83.6418H86.8577V84.5147H82.366V76.4512L82.364 76.4531Z" fill="white"/>
<path d="M90.2952 81.9796L89.4564 84.5157H88.3789L91.1221 76.4521H92.3792L95.1343 84.5157H94.0192L93.1568 81.9796H90.2932H90.2952ZM92.9417 81.1658L92.1503 78.8444C91.9707 78.3183 91.8503 77.8394 91.73 77.3724H91.7063C91.5859 77.8513 91.4556 78.3419 91.2997 78.8326L90.5083 81.1658H92.9397H92.9417Z" fill="white"/>
<path d="M97.2881 76.5606C97.744 76.464 98.4623 76.3931 99.1925 76.3931C100.235 76.3931 100.906 76.5724 101.409 76.9803C101.829 77.2916 102.08 77.7705 102.08 78.4031C102.08 79.1814 101.565 79.8632 100.714 80.1726V80.1963C101.482 80.3874 102.38 81.0219 102.38 82.2181C102.38 82.9117 102.105 83.4379 101.697 83.8339C101.134 84.3483 100.223 84.5867 98.9064 84.5867C98.188 84.5867 97.6354 84.5394 97.2881 84.4901V76.5586V76.5606ZM98.3301 79.8613H99.2774C100.381 79.8613 101.026 79.2878 101.026 78.5095C101.026 77.5636 100.308 77.1931 99.2517 77.1931C98.7722 77.1931 98.4979 77.2286 98.3301 77.2641V79.8593V79.8613ZM98.3301 83.7256C98.5334 83.761 98.8334 83.7729 99.2044 83.7729C100.282 83.7729 101.277 83.3787 101.277 82.2062C101.277 81.1067 100.329 80.6515 99.1925 80.6515H98.3301V83.7256Z" fill="white"/>
<path d="M104.607 83.2469C105.074 83.5346 105.757 83.773 106.476 83.773C107.541 83.773 108.165 83.2114 108.165 82.3976C108.165 81.6428 107.735 81.2133 106.643 80.7935C105.325 80.3265 104.51 79.6447 104.51 78.5077C104.51 77.2524 105.552 76.3184 107.123 76.3184C107.95 76.3184 108.548 76.5095 108.907 76.7125L108.619 77.5618C108.354 77.4179 107.816 77.1795 107.085 77.1795C105.982 77.1795 105.564 77.8377 105.564 78.3875C105.564 79.1402 106.055 79.5127 107.17 79.9422C108.536 80.4684 109.231 81.1266 109.231 82.3109C109.231 83.5543 108.309 84.6322 106.403 84.6322C105.623 84.6322 104.773 84.4056 104.342 84.1179L104.607 83.2449V83.2469Z" fill="white"/>
<path d="M0.835499 1.11133C0.649988 1.11133 0.5 1.25321 0.5 1.42662V92.6423C0.5 92.8157 0.649988 92.9576 0.835499 92.9576C1.02101 92.9576 1.171 92.8157 1.171 92.6423V1.42662C1.171 1.25321 1.02101 1.11133 0.835499 1.11133Z" fill="white"/>
<path d="M5.53447 8.42969C5.34896 8.42969 5.19897 8.5223 5.19897 8.63857V69.139C5.19897 69.2553 5.34896 69.3479 5.53447 69.3479C5.71998 69.3479 5.86997 69.2533 5.86997 69.139V8.63857C5.86997 8.5223 5.71998 8.42969 5.53447 8.42969Z" fill="white"/>
<path d="M10.742 8.49902C10.5565 8.49902 10.4065 8.59361 10.4065 8.7079V69.2084C10.4065 69.3246 10.5565 69.4172 10.742 69.4172C10.9275 69.4172 11.0775 69.3226 11.0775 69.2084V8.7079C11.0775 8.59164 10.9275 8.49902 10.742 8.49902Z" fill="white"/>
<path d="M15.441 8.45361C15.2555 8.45361 15.1055 8.5482 15.1055 8.66249V69.1629C15.1055 69.2772 15.2555 69.3718 15.441 69.3718C15.6265 69.3718 15.7765 69.2772 15.7765 69.1629V8.66249C15.7765 8.54623 15.6265 8.45361 15.441 8.45361Z" fill="white"/>
<path d="M20.6065 8.44238C20.421 8.44238 20.271 8.53697 20.271 8.65126V69.1517C20.271 69.268 20.421 69.3606 20.6065 69.3606C20.792 69.3606 20.942 69.266 20.942 69.1517V8.65126C20.942 8.535 20.792 8.44238 20.6065 8.44238Z" fill="white"/>
<path d="M25.3057 8.39404C25.1202 8.39404 24.9702 8.48863 24.9702 8.60292V69.1034C24.9702 69.2196 25.1202 69.3122 25.3057 69.3122C25.4912 69.3122 25.6412 69.2177 25.6412 69.1034V8.60292C25.6412 8.48666 25.4912 8.39404 25.3057 8.39404Z" fill="white"/>
<path d="M88.6946 8.45605C88.5091 8.45605 88.3591 8.55064 88.3591 8.66494V69.1654C88.3591 69.2816 88.5091 69.3743 88.6946 69.3743C88.8801 69.3743 89.0301 69.2797 89.0301 69.1654V8.66494C89.0301 8.54867 88.8801 8.45605 88.6946 8.45605Z" fill="white"/>
<path d="M93.3939 8.40771C93.2083 8.40771 93.0583 8.5023 93.0583 8.61659V69.117C93.0583 69.2333 93.2083 69.3259 93.3939 69.3259C93.5794 69.3259 93.7293 69.2313 93.7293 69.117V8.61857C93.7293 8.5023 93.5794 8.40969 93.3939 8.40969V8.40771Z" fill="white"/>
<path d="M98.5987 8.47949C98.4132 8.47949 98.2632 8.57408 98.2632 8.68837V69.1868C98.2632 69.3031 98.4132 69.3957 98.5987 69.3957C98.7842 69.3957 98.9342 69.3011 98.9342 69.1868V8.68837C98.9342 8.57211 98.7842 8.47949 98.5987 8.47949Z" fill="white"/>
<path d="M103.298 8.43262C103.112 8.43262 102.962 8.52523 102.962 8.6415V69.1419C102.962 69.2582 103.112 69.3508 103.298 69.3508C103.483 69.3508 103.633 69.2562 103.633 69.1419V8.6415C103.633 8.52523 103.483 8.43262 103.298 8.43262Z" fill="white"/>
<path d="M108.463 8.41992C108.278 8.41992 108.128 8.51451 108.128 8.6288V69.1292C108.128 69.2455 108.278 69.3381 108.463 69.3381C108.649 69.3381 108.799 69.2435 108.799 69.1292V8.63077C108.799 8.51451 108.649 8.42189 108.463 8.42189V8.41992Z" fill="white"/>
<path d="M113.165 0.95752C112.98 0.95752 112.83 1.0994 112.83 1.27281V92.4885C112.83 92.6619 112.98 92.8038 113.165 92.8038C113.351 92.8038 113.501 92.6619 113.501 92.4885V1.27281C113.501 1.0994 113.351 0.95752 113.165 0.95752Z" fill="white"/>
<path fill-rule="evenodd" clip-rule="evenodd" d="M59.5183 49.3406C61.3892 45.8251 61.5155 42.1126 60.4617 38.2818C60.142 37.1172 59.5775 36.0215 59.1433 34.8884C58.9855 34.4746 58.8809 34.0411 58.796 33.7613C60.588 31.769 62.6404 30.703 65.0836 30.2872C66.6565 30.0192 68.19 30.0684 69.7609 30.2635C71.6061 30.4941 73.4632 30.6438 75.3144 30.1413C77.7991 29.4674 79.7509 28.1294 81.3435 25.8258C81.0021 25.5637 80.6646 25.2839 80.3054 25.0356C79.9226 24.7715 79.52 24.537 79.0069 24.2119C77.1379 26.2987 74.9986 27.8772 71.8094 27.219C74.4066 23.5715 75.1328 19.8057 73.0034 15.6044C72.1291 16.0045 71.3516 16.3611 70.4714 16.7651C70.6016 17.2124 70.6964 17.5849 70.8148 17.9475C71.6673 20.5368 70.9529 22.866 69.607 25.077C69.3997 25.4179 69.0741 25.7016 68.7603 25.9578C67.6157 26.8919 64.1245 27.7707 62.447 27.5422C62.7549 25.8534 62.899 24.1547 63.6292 22.5428C64.5015 20.6215 65.9007 19.5219 67.9591 19.1929C68.2373 19.1475 68.5057 19.049 68.7761 18.9643C68.8215 18.9505 68.8491 18.8795 68.9873 18.7061C68.7603 17.9317 68.5057 17.0686 68.2413 16.168C65.9559 16.1207 64.2785 17.2459 62.5556 18.5524C60.734 13.4979 57.6237 9.98832 52.0604 9.10156C51.7663 10.1026 51.9499 11.0662 51.9242 12.0298C52.4274 12.2092 52.8498 12.3944 53.2899 12.5106C55.9857 13.2279 57.6987 15.1138 58.8197 17.4883C60.3452 20.72 60.4478 24.1075 59.24 27.487C58.7329 28.9019 58.0323 30.2202 56.8245 31.1956C53.2445 27.7786 52.3011 21.2817 55.5871 16.1838C54.7759 15.632 53.9628 15.0783 53.0215 14.4379C52.3702 15.7976 51.7328 17.1277 51.0657 18.5229C49.3547 17.372 47.7502 16.0971 45.6168 16.1621C44.8728 17.039 44.7287 17.979 44.8767 19.0904C46.2977 19.1534 47.5864 19.6146 48.7409 20.5762C50.3118 22.73 51.1762 25.3627 51.0065 27.5579C44.5866 27.9816 40.8626 22.9448 43.2229 16.8814C42.2849 16.2744 41.358 15.9046 40.4422 15.7719C38.7983 19.7328 39.0845 23.4808 41.7132 26.9805C39.5028 27.9225 37.2589 27.0338 34.6184 24.1981C33.8309 24.7242 33.0317 25.2583 32.1416 25.8554C34.4388 28.691 37.1346 30.5157 40.8271 30.4271C42.102 30.3975 43.3729 30.228 44.6458 30.1177C46.8207 29.9305 48.956 30.1138 50.9927 30.9217C52.7629 31.6232 54.176 32.8351 55.2713 34.3722C57.1382 36.991 58.1605 39.9114 58.1625 43.1451C58.1625 44.5521 57.6454 46.1877 56.7495 47.7602C55.8199 46.0695 55.7331 44.3807 55.37 42.7747C55.966 39.9903 55.7528 38.8434 54.0536 36.0393C53.8701 36.4767 53.7201 36.8216 53.576 37.1723C52.6524 39.4267 52.3268 41.7914 52.6169 44.1817C52.7965 45.6556 53.1833 47.1513 53.7497 48.5228C54.2253 49.6756 54.7779 50.7791 55.4035 51.8373L50.9986 69.2631H65.3284L59.5124 49.3406H59.5183Z" fill="white"/>
<path fill-rule="evenodd" clip-rule="evenodd" d="M80.9375 28.8008C80.1658 29.4432 79.4297 30.056 78.7153 30.6492C78.4331 31.9419 78.2338 33.2582 77.8469 34.5194C77.1365 36.8407 75.4393 38.1768 73.1302 38.7167C72.548 38.8527 71.881 38.7009 71.2633 38.6044C70.5804 38.496 69.9114 38.295 69.0569 38.092C70.1522 36.2594 71.3698 34.5489 71.3284 32.2907C70.4443 32.1409 69.5443 31.9911 68.603 31.8315C67.7879 33.1853 67.5353 34.7204 66.4025 35.8318C65.2736 36.9392 63.8034 37.3196 62.4673 37.9698C62.6686 38.9413 62.8541 39.8379 63.0455 40.7641C65.0329 40.435 66.9097 40.4863 68.7411 41.174C70.91 41.9859 72.4158 43.584 73.8664 45.4304C74.7386 45.2018 75.6741 44.9575 76.7714 44.6698C76.0688 43.5741 75.4175 42.5652 74.7169 41.4735C80.2448 39.3394 82.3091 34.1686 80.9375 28.8008Z" fill="white"/>
<path fill-rule="evenodd" clip-rule="evenodd" d="M47.1013 36.067C45.9192 34.9931 45.4751 33.5664 45.0883 32.0569C44.0818 31.6825 43.1937 32.118 42.2583 32.4412C42.2741 34.595 43.3437 36.3015 44.5022 38.075C43.3714 38.3686 42.3688 38.6288 41.2577 38.9165C40.5038 38.6859 39.6335 38.5283 38.8599 38.1617C36.6752 37.1232 35.6312 35.2591 35.2977 32.9338C35.1911 32.1909 35.0687 31.45 34.9701 30.8115C34.159 30.112 33.4189 29.4735 32.6689 28.8271C31.0704 33.657 33.3893 39.5273 38.7888 41.4861C38.1356 42.5108 37.4942 43.5158 36.7778 44.639C37.8198 44.9385 38.7356 45.2026 39.7184 45.4863C40.9084 43.7128 42.3945 42.2546 44.3502 41.3718C46.2507 40.5126 48.24 40.3116 50.4681 40.8989C50.6833 39.9727 50.8944 39.0564 51.1352 38.0179C49.7182 37.472 48.242 37.1055 47.1013 36.067Z" fill="white"/>
</g>
<defs>
<clipPath id="clip0_127_339">
<rect width="113" height="92" fill="white" transform="translate(0.5 0.95752)"/>
</clipPath>
</defs>
</svg>
