<svg width="145" height="38" viewBox="0 0 145 38" fill="none" xmlns="http://www.w3.org/2000/svg">
<rect x="0.197266" y="0.197266" width="144.172" height="37.0855" rx="7.89986" fill="url(#paint0_linear_351_425)"/>
<path d="M37.2417 18.6102H41.219V23.8082C40.6933 23.9819 40.147 24.1214 39.5801 24.2265C39.0132 24.3271 38.3709 24.3774 37.6531 24.3774C36.6565 24.3774 35.8107 24.1808 35.1159 23.7876C34.421 23.3945 33.8929 22.8139 33.5318 22.0458C33.1706 21.2778 32.99 20.3337 32.99 19.2137C32.99 18.1622 33.1912 17.2524 33.5935 16.4844C34.0004 15.7163 34.5924 15.122 35.3696 14.7014C36.1513 14.2808 37.1045 14.0705 38.2292 14.0705C38.7595 14.0705 39.2829 14.1277 39.7995 14.242C40.3161 14.3563 40.7847 14.5048 41.2053 14.6877L40.499 16.3884C40.1927 16.2329 39.843 16.1026 39.4498 15.9975C39.0566 15.8924 38.6452 15.8398 38.2154 15.8398C37.5983 15.8398 37.0611 15.9815 36.6039 16.2649C36.1513 16.5484 35.7993 16.9461 35.5479 17.4582C35.301 17.9656 35.1776 18.5645 35.1776 19.2548C35.1776 19.9086 35.2667 20.4892 35.445 20.9966C35.6233 21.4995 35.9045 21.895 36.2885 22.183C36.6725 22.4664 37.1731 22.6081 37.7903 22.6081C38.092 22.6081 38.3457 22.5944 38.5515 22.567C38.7618 22.535 38.9583 22.503 39.1412 22.471V20.3795H37.2417V18.6102ZM46.6091 16.4295C47.3177 16.4295 47.928 16.5667 48.44 16.841C48.952 17.1107 49.3475 17.5039 49.6264 18.0205C49.9052 18.5371 50.0447 19.168 50.0447 19.9131V20.9281H45.1004C45.1233 21.5178 45.2993 21.9818 45.6284 22.3201C45.9622 22.6539 46.4239 22.8207 47.0136 22.8207C47.5028 22.8207 47.9508 22.7704 48.3577 22.6699C48.7646 22.5693 49.1829 22.4184 49.6126 22.2173V23.8356C49.2332 24.0231 48.8355 24.1602 48.4194 24.2471C48.008 24.334 47.5074 24.3774 46.9176 24.3774C46.1496 24.3774 45.4684 24.2357 44.8741 23.9522C44.2844 23.6688 43.8203 23.2368 43.482 22.6561C43.1483 22.0755 42.9814 21.3441 42.9814 20.4617C42.9814 19.5657 43.1323 18.8205 43.434 18.2262C43.7403 17.6273 44.1655 17.1793 44.7095 16.8821C45.2535 16.5804 45.8867 16.4295 46.6091 16.4295ZM46.6228 17.9176C46.2159 17.9176 45.8776 18.0479 45.6079 18.3085C45.3427 18.5691 45.1895 18.9782 45.1484 19.536H48.0834C48.0788 19.2251 48.0217 18.9485 47.912 18.7062C47.8068 18.4639 47.6468 18.2719 47.432 18.1302C47.2217 17.9885 46.9519 17.9176 46.6228 17.9176ZM54.9752 22.711C55.2038 22.711 55.4255 22.6881 55.6404 22.6424C55.8598 22.5967 56.077 22.5396 56.2919 22.471V24.0277C56.0678 24.1282 55.789 24.2105 55.4552 24.2745C55.1261 24.3431 54.7649 24.3774 54.3718 24.3774C53.9146 24.3774 53.5031 24.3042 53.1374 24.1579C52.7762 24.0071 52.4905 23.7488 52.2802 23.383C52.0745 23.0127 51.9716 22.4984 51.9716 21.8401V18.1439H50.9704V17.2593L52.1225 16.5598L52.726 14.9414H54.0632V16.5735H56.2096V18.1439H54.0632V21.8401C54.0632 22.1327 54.1455 22.3521 54.31 22.4984C54.4792 22.6401 54.7009 22.711 54.9752 22.711ZM67.5793 21.4561C67.5793 22.0504 67.4353 22.567 67.1473 23.0059C66.8593 23.4448 66.4387 23.7831 65.8855 24.0208C65.3369 24.2585 64.6695 24.3774 63.8831 24.3774C63.5357 24.3774 63.1951 24.3545 62.8614 24.3088C62.5322 24.2631 62.2145 24.1968 61.9082 24.1099C61.6064 24.0185 61.3184 23.9065 61.0441 23.7739V21.799C61.5196 22.0093 62.0133 22.199 62.5253 22.3681C63.0374 22.5373 63.5448 22.6219 64.0477 22.6219C64.3952 22.6219 64.674 22.5761 64.8843 22.4847C65.0992 22.3933 65.2546 22.2676 65.3506 22.1075C65.4466 21.9475 65.4946 21.7647 65.4946 21.5589C65.4946 21.3075 65.4101 21.0926 65.2409 20.9143C65.0718 20.736 64.8386 20.5692 64.5415 20.4137C64.2489 20.2583 63.9174 20.0914 63.5471 19.9131C63.314 19.8034 63.0602 19.6708 62.7859 19.5154C62.5116 19.3554 62.251 19.1611 62.0042 18.9325C61.7573 18.7039 61.5539 18.4273 61.3939 18.1028C61.2384 17.7736 61.1607 17.3804 61.1607 16.9233C61.1607 16.3244 61.2978 15.8123 61.5721 15.3872C61.8464 14.962 62.2373 14.6374 62.7448 14.4134C63.2568 14.1848 63.8603 14.0705 64.5552 14.0705C65.0763 14.0705 65.5724 14.1323 66.0432 14.2557C66.5187 14.3746 67.0147 14.5483 67.5313 14.7769L66.8456 16.4295C66.3838 16.2421 65.9701 16.0981 65.6044 15.9975C65.2386 15.8924 64.866 15.8398 64.4866 15.8398C64.2214 15.8398 63.9951 15.8832 63.8077 15.9701C63.6203 16.0524 63.4785 16.1712 63.3825 16.3267C63.2865 16.4775 63.2385 16.6535 63.2385 16.8547C63.2385 17.0924 63.3071 17.2936 63.4443 17.4582C63.586 17.6182 63.7963 17.7736 64.0751 17.9245C64.3586 18.0753 64.7106 18.2513 65.1312 18.4525C65.6432 18.6948 66.0798 18.9485 66.441 19.2137C66.8067 19.4743 67.0879 19.7828 67.2845 20.1394C67.481 20.4915 67.5793 20.9303 67.5793 21.4561ZM72.4619 22.711C72.6905 22.711 72.9122 22.6881 73.1271 22.6424C73.3465 22.5967 73.5637 22.5396 73.7785 22.471V24.0277C73.5545 24.1282 73.2756 24.2105 72.9419 24.2745C72.6128 24.3431 72.2516 24.3774 71.8584 24.3774C71.4013 24.3774 70.9898 24.3042 70.6241 24.1579C70.2629 24.0071 69.9772 23.7488 69.7669 23.383C69.5612 23.0127 69.4583 22.4984 69.4583 21.8401V18.1439H68.4571V17.2593L69.6092 16.5598L70.2126 14.9414H71.5498V16.5735H73.6962V18.1439H71.5498V21.8401C71.5498 22.1327 71.6321 22.3521 71.7967 22.4984C71.9659 22.6401 72.1876 22.711 72.4619 22.711ZM78.4759 16.4158C79.5046 16.4158 80.2932 16.6398 80.8418 17.0878C81.3904 17.5359 81.6647 18.217 81.6647 19.1314V24.2402H80.204L79.7994 23.1979H79.7446C79.5251 23.4722 79.3011 23.6962 79.0725 23.8699C78.8439 24.0437 78.5811 24.1717 78.2839 24.2539C77.9868 24.3362 77.6256 24.3774 77.2004 24.3774C76.7478 24.3774 76.341 24.2905 75.9798 24.1168C75.6232 23.9431 75.342 23.6779 75.1363 23.3213C74.9306 22.9602 74.8277 22.503 74.8277 21.9498C74.8277 21.1361 75.1135 20.5372 75.6849 20.1532C76.2564 19.7646 77.1136 19.5497 78.2565 19.5085L79.5868 19.4674V19.1314C79.5868 18.7291 79.4817 18.4342 79.2714 18.2468C79.0611 18.0593 78.7685 17.9656 78.3936 17.9656C78.0233 17.9656 77.6599 18.0182 77.3033 18.1233C76.9467 18.2285 76.5901 18.3611 76.2335 18.5211L75.5409 17.1084C75.9478 16.8935 76.4027 16.7244 76.9056 16.601C77.413 16.4775 77.9365 16.4158 78.4759 16.4158ZM79.5868 20.688L78.7777 20.7155C78.1011 20.7338 77.6302 20.8549 77.365 21.0789C77.1044 21.3029 76.9741 21.5978 76.9741 21.9635C76.9741 22.2836 77.0679 22.5121 77.2553 22.6493C77.4427 22.7819 77.6873 22.8482 77.989 22.8482C78.4371 22.8482 78.8142 22.7156 79.1205 22.4504C79.4314 22.1853 79.5868 21.8081 79.5868 21.3189V20.688ZM88.1039 16.4295C88.209 16.4295 88.3302 16.4364 88.4673 16.4501C88.609 16.4592 88.7233 16.473 88.8102 16.4912L88.6525 18.4525C88.5839 18.4296 88.4856 18.4136 88.3576 18.4045C88.2342 18.3908 88.1267 18.3839 88.0353 18.3839C87.7656 18.3839 87.5027 18.4182 87.2467 18.4868C86.9952 18.5554 86.7689 18.6674 86.5678 18.8228C86.3666 18.9737 86.2066 19.1748 86.0878 19.4263C85.9735 19.6731 85.9163 19.9771 85.9163 20.3383V24.2402H83.8248V16.5735H85.4089L85.7175 17.8627H85.8203C85.9712 17.6022 86.1586 17.3644 86.3826 17.1496C86.6112 16.9301 86.8695 16.7564 87.1575 16.6284C87.4501 16.4958 87.7656 16.4295 88.1039 16.4295ZM93.4322 22.711C93.6608 22.711 93.8825 22.6881 94.0974 22.6424C94.3168 22.5967 94.5339 22.5396 94.7488 22.471V24.0277C94.5248 24.1282 94.2459 24.2105 93.9122 24.2745C93.583 24.3431 93.2219 24.3774 92.8287 24.3774C92.3715 24.3774 91.9601 24.3042 91.5944 24.1579C91.2332 24.0071 90.9475 23.7488 90.7372 23.383C90.5314 23.0127 90.4286 22.4984 90.4286 21.8401V18.1439H89.4274V17.2593L90.5794 16.5598L91.1829 14.9414H92.5201V16.5735H94.6665V18.1439H92.5201V21.8401C92.5201 22.1327 92.6024 22.3521 92.767 22.4984C92.9361 22.6401 93.1579 22.711 93.4322 22.711ZM99.4668 16.4295C100.175 16.4295 100.786 16.5667 101.298 16.841C101.81 17.1107 102.205 17.5039 102.484 18.0205C102.763 18.5371 102.902 19.168 102.902 19.9131V20.9281H97.9581C97.981 21.5178 98.157 21.9818 98.4862 22.3201C98.8199 22.6539 99.2816 22.8207 99.8714 22.8207C100.361 22.8207 100.809 22.7704 101.215 22.6699C101.622 22.5693 102.041 22.4184 102.47 22.2173V23.8356C102.091 24.0231 101.693 24.1602 101.277 24.2471C100.866 24.334 100.365 24.3774 99.7754 24.3774C99.0073 24.3774 98.3262 24.2357 97.7318 23.9522C97.1421 23.6688 96.6781 23.2368 96.3398 22.6561C96.006 22.0755 95.8392 21.3441 95.8392 20.4617C95.8392 19.5657 95.99 18.8205 96.2918 18.2262C96.5981 17.6273 97.0232 17.1793 97.5673 16.8821C98.1113 16.5804 98.7445 16.4295 99.4668 16.4295ZM99.4805 17.9176C99.0736 17.9176 98.7353 18.0479 98.4656 18.3085C98.2004 18.5691 98.0473 18.9782 98.0061 19.536H100.941C100.937 19.2251 100.879 18.9485 100.77 18.7062C100.665 18.4639 100.505 18.2719 100.29 18.1302C100.079 17.9885 99.8097 17.9176 99.4805 17.9176ZM107.031 24.3774C106.176 24.3774 105.479 24.0437 104.939 23.3762C104.404 22.7042 104.137 21.719 104.137 20.4206C104.137 19.1085 104.409 18.1165 104.953 17.4444C105.497 16.7678 106.208 16.4295 107.085 16.4295C107.451 16.4295 107.774 16.4798 108.052 16.5804C108.331 16.681 108.571 16.8158 108.772 16.985C108.978 17.1541 109.152 17.3439 109.294 17.5542H109.362C109.335 17.4079 109.3 17.193 109.259 16.9095C109.223 16.6215 109.204 16.3267 109.204 16.0249V13.5699H111.303V24.2402H109.698L109.294 23.2459H109.204C109.072 23.4562 108.905 23.6482 108.704 23.8219C108.507 23.9911 108.272 24.1259 107.998 24.2265C107.723 24.3271 107.401 24.3774 107.031 24.3774ZM107.764 22.711C108.336 22.711 108.738 22.5419 108.971 22.2036C109.209 21.8607 109.335 21.3464 109.348 20.6606V20.4343C109.348 19.6891 109.234 19.12 109.006 18.7268C108.777 18.3291 108.352 18.1302 107.73 18.1302C107.268 18.1302 106.907 18.3291 106.647 18.7268C106.386 19.1245 106.256 19.6983 106.256 20.448C106.256 21.1978 106.386 21.7624 106.647 22.1418C106.912 22.5213 107.284 22.711 107.764 22.711Z" fill="#F2F2F7"/>
<defs>
<linearGradient id="paint0_linear_351_425" x1="185.076" y1="-0.0770279" x2="137.746" y2="93.947" gradientUnits="userSpaceOnUse">
<stop stop-color="#036A89"/>
<stop offset="1" stop-color="#161F36"/>
</linearGradient>
</defs>
</svg>
