<svg width="60" height="64" viewBox="0 0 60 64" fill="none" xmlns="http://www.w3.org/2000/svg">
<circle cx="30.1299" cy="30.397" r="29.5" fill="#064A71" fill-opacity="0.5"/>
<g filter="url(#filter0_d_243_25406)">
<path d="M24.2304 12.9525C24.2004 12.958 24.1703 12.9665 24.143 12.9749C23.9135 13.0279 23.7242 13.1959 23.6381 13.4278C23.552 13.6597 23.583 13.9182 23.7208 14.12L25.1888 16.4715C22.6677 17.8436 20.849 20.2277 20.41 23.0745C20.4099 23.0831 20.4099 23.0888 20.4098 23.0974C20.4098 23.106 20.4097 23.1118 20.4097 23.1204C20.4095 23.1433 20.4094 23.1663 20.4092 23.1893C20.4091 23.2036 20.409 23.2208 20.4089 23.2352C20.4059 23.2725 20.4057 23.3126 20.4082 23.35L20.4013 24.383C19.9884 24.1249 19.5204 23.9639 19.0077 23.9605C17.4722 23.9502 16.2061 25.2648 16.1953 26.8804L16.1365 35.6958C16.1258 37.3114 17.3742 38.6427 18.9097 38.653C19.4224 38.6564 19.8926 38.5017 20.3088 38.249L20.2963 40.1315C20.2882 41.3396 21.2279 42.3417 22.3761 42.3494L23.0743 42.354L23.0449 46.7618C23.0341 48.3774 24.2826 49.7086 25.818 49.7189C27.3535 49.7291 28.6196 48.4146 28.6304 46.799L28.6598 42.3913L31.4525 42.4099L31.4231 46.8176C31.4123 48.4332 32.6608 49.7645 34.1962 49.7747C35.7317 49.785 36.9978 48.4705 37.0086 46.8549L37.038 42.4471L37.7362 42.4518C38.8843 42.4594 39.8373 41.47 39.8454 40.2619L39.858 38.3794C40.2708 38.6376 40.7388 38.7985 41.2516 38.8019C42.787 38.8122 44.0531 37.4977 44.0639 35.8821L44.1227 27.0666C44.1335 25.451 42.885 24.1197 41.3495 24.1095C40.8368 24.106 40.3667 24.2608 39.9504 24.5134L39.9572 23.5033C39.9658 23.4345 39.9663 23.3656 39.9585 23.2967C39.9586 23.2881 39.9586 23.2823 39.9587 23.2737C39.9587 23.2651 39.9588 23.2594 39.9588 23.2507C39.5716 20.3784 37.785 17.9502 35.2688 16.5387L36.7681 14.207C36.9416 13.9613 36.9492 13.6285 36.79 13.372C36.6335 13.1156 36.3398 12.9873 36.0557 13.0543C35.8755 13.0962 35.7165 13.2099 35.6172 13.3728L33.9639 15.9101C32.8159 15.4663 31.5519 15.2283 30.2374 15.2195C28.9228 15.2107 27.6558 15.4319 26.502 15.8604L24.8827 13.3012C24.7451 13.065 24.4924 12.9313 24.2304 12.9525ZM30.2276 16.6887C31.5394 16.6975 32.7676 16.9754 33.8444 17.4705C33.8661 17.4792 33.8879 17.488 33.9097 17.4939C36.0875 18.5157 37.6649 20.4116 38.2612 22.6196L22.1156 22.5119C22.7329 20.3436 24.3026 18.4916 26.4475 17.49C26.494 17.4731 26.5378 17.4504 26.5789 17.422C27.6676 16.9357 28.9076 16.6799 30.2276 16.6887ZM26.3729 18.867C25.792 18.8631 25.3223 19.3536 25.3183 19.962C25.3142 20.5732 25.7773 21.067 26.3582 21.0709C26.9364 21.0747 27.4087 20.5872 27.4128 19.9759C27.4169 19.3676 26.9511 18.8709 26.3729 18.867ZM34.0529 18.9182C33.4747 18.9144 33.0023 19.4048 32.9983 20.0132C32.9942 20.6244 33.46 21.1182 34.0382 21.1221C34.6191 21.126 35.0888 20.6384 35.0928 20.0271C35.0969 19.4188 34.6338 18.9221 34.0529 18.9182ZM21.8004 23.9791L38.5568 24.0908L38.449 40.2526C38.4463 40.6658 38.1387 40.9852 37.746 40.9825L32.2914 40.9462C32.1988 40.9255 32.1006 40.9248 32.0078 40.9443L23.9132 40.8903C23.8206 40.8696 23.7224 40.8689 23.6295 40.8884L22.3859 40.8801C21.9932 40.8775 21.6899 40.5541 21.6926 40.1408L21.8004 23.9791ZM18.9979 25.4297C19.7779 25.4349 20.3899 26.0876 20.3844 26.9083L20.3256 35.7238C20.3202 36.5445 19.6995 37.1889 18.9195 37.1837C18.1395 37.1785 17.5274 36.5259 17.5329 35.7052L17.5917 26.8897C17.5972 26.069 18.2179 25.4245 18.9979 25.4297ZM41.3397 25.5787C42.1198 25.5839 42.7318 26.2366 42.7263 27.0573L42.6675 35.8728C42.6621 36.6935 42.0414 37.3379 41.2614 37.3327C40.4814 37.3275 39.8693 36.6749 39.8748 35.8541L39.9336 27.0387C39.9391 26.2179 40.5597 25.5735 41.3397 25.5787ZM24.4707 42.3633L27.2634 42.3819L27.234 46.7897C27.2285 47.6104 26.6078 48.2548 25.8278 48.2496C25.0478 48.2444 24.4358 47.5918 24.4413 46.7711L24.4707 42.3633ZM32.8489 42.4192L35.6416 42.4378L35.6122 46.8456C35.6067 47.6663 34.986 48.3107 34.206 48.3055C33.426 48.3003 32.814 47.6477 32.8195 46.8269L32.8489 42.4192Z" fill="white"/>
</g>
<defs>
<filter id="filter0_d_243_25406" x="6.13647" y="6.9502" width="47.9863" height="56.8247" filterUnits="userSpaceOnUse" color-interpolation-filters="sRGB">
<feFlood flood-opacity="0" result="BackgroundImageFix"/>
<feColorMatrix in="SourceAlpha" type="matrix" values="0 0 0 0 0 0 0 0 0 0 0 0 0 0 0 0 0 0 127 0" result="hardAlpha"/>
<feOffset dy="4"/>
<feGaussianBlur stdDeviation="5"/>
<feComposite in2="hardAlpha" operator="out"/>
<feColorMatrix type="matrix" values="0 0 0 0 0.452605 0 0 0 0 0.776223 0 0 0 0 0.824167 0 0 0 1 0"/>
<feBlend mode="normal" in2="BackgroundImageFix" result="effect1_dropShadow_243_25406"/>
<feBlend mode="normal" in="SourceGraphic" in2="effect1_dropShadow_243_25406" result="shape"/>
</filter>
</defs>
</svg>
