<svg width="62" height="61" viewBox="0 0 62 61" fill="none" xmlns="http://www.w3.org/2000/svg">
<path d="M30.343 12.87C33.8312 12.87 36.6589 10.0423 36.6589 6.55415C36.6589 3.06599 33.8312 0.238281 30.343 0.238281C26.8548 0.238281 24.0271 3.06599 24.0271 6.55415C24.0271 10.0423 26.8548 12.87 30.343 12.87Z" fill="#73C6D2"/>
<path d="M30.343 36.559C33.8312 36.559 36.6589 33.7313 36.6589 30.2431C36.6589 26.755 33.8312 23.9272 30.343 23.9272C26.8548 23.9272 24.0271 26.755 24.0271 30.2431C24.0271 33.7313 26.8548 36.559 30.343 36.559Z" fill="#73C6D2"/>
<path d="M6.65866 36.559C10.1468 36.559 12.9745 33.7313 12.9745 30.2431C12.9745 26.755 10.1468 23.9272 6.65866 23.9272C3.17049 23.9272 0.342773 26.755 0.342773 30.2431C0.342773 33.7313 3.17049 36.559 6.65866 36.559Z" fill="#73C6D2"/>
<path d="M55.6076 36.559C59.0958 36.559 61.9235 33.7313 61.9235 30.2431C61.9235 26.755 59.0958 23.9272 55.6076 23.9272C52.1195 23.9272 49.2917 26.755 49.2917 30.2431C49.2917 33.7313 52.1195 36.559 55.6076 36.559Z" fill="#73C6D2"/>
<path d="M46.9223 16.2732C49.1024 16.2732 50.8697 14.5059 50.8697 12.3258C50.8697 10.1457 49.1024 8.37842 46.9223 8.37842C44.7422 8.37842 42.9749 10.1457 42.9749 12.3258C42.9749 14.5059 44.7422 16.2732 46.9223 16.2732Z" fill="#73C6D2"/>
<path d="M46.9225 50.7679C49.1026 50.7679 50.8699 49.0005 50.8699 46.8205C50.8699 44.6404 49.1026 42.873 46.9225 42.873C44.7424 42.873 42.9751 44.6404 42.9751 46.8205C42.9751 49.0005 44.7424 50.7679 46.9225 50.7679Z" fill="#73C6D2"/>
<path d="M13.7631 50.7679C15.9432 50.7679 17.7105 49.0005 17.7105 46.8205C17.7105 44.6404 15.9432 42.873 13.7631 42.873C11.583 42.873 9.81567 44.6404 9.81567 46.8205C9.81567 49.0005 11.583 50.7679 13.7631 50.7679Z" fill="#73C6D2"/>
<path d="M13.7631 16.2732C15.9432 16.2732 17.7105 14.5059 17.7105 12.3258C17.7105 10.1457 15.9432 8.37842 13.7631 8.37842C11.583 8.37842 9.81567 10.1457 9.81567 12.3258C9.81567 14.5059 11.583 16.2732 13.7631 16.2732Z" fill="#73C6D2"/>
<path d="M30.343 60.2382C33.8312 60.2382 36.6589 57.4105 36.6589 53.9223C36.6589 50.4342 33.8312 47.6064 30.343 47.6064C26.8548 47.6064 24.0271 50.4342 24.0271 53.9223C24.0271 57.4105 26.8548 60.2382 30.343 60.2382Z" fill="#73C6D2"/>
</svg>
