<svg width="60" height="61" viewBox="0 0 60 61" fill="none" xmlns="http://www.w3.org/2000/svg">
<path d="M33.5864 30.626C33.5864 28.3587 31.7884 26.5207 29.5704 26.5207C27.3524 26.5207 25.5544 28.3587 25.5544 30.626C25.5544 32.8932 27.3524 34.7312 29.5704 34.7312C31.7884 34.7312 33.5864 32.8932 33.5864 30.626Z" fill="#73C6D2"/>
<path d="M44.5533 24.1523C44.5533 21.885 42.7552 20.047 40.5372 20.047C38.3193 20.047 36.5212 21.885 36.5212 24.1523C36.5212 26.4195 38.3193 28.2575 40.5372 28.2575C42.7552 28.2575 44.5533 26.4195 44.5533 24.1523Z" fill="#73C6D2"/>
<path d="M55.5201 17.6786C55.5201 15.4113 53.7221 13.5733 51.5041 13.5733C49.2861 13.5733 47.4881 15.4113 47.4881 17.6786C47.4881 19.9459 49.2861 21.7839 51.5041 21.7839C53.7221 21.7839 55.5201 19.9459 55.5201 17.6786Z" fill="#73C6D2"/>
<path d="M22.7741 37.0996C22.7741 34.8323 20.976 32.9944 18.7581 32.9944C16.5401 32.9944 14.742 34.8323 14.742 37.0996C14.742 39.3669 16.5401 41.2049 18.7581 41.2049C20.976 41.2049 22.7741 39.3669 22.7741 37.0996Z" fill="#73C6D2"/>
<path d="M11.9617 43.5733C11.9617 41.3061 10.1637 39.4681 7.94571 39.4681C5.72772 39.4681 3.92969 41.3061 3.92969 43.5733C3.92969 45.8406 5.72772 47.6786 7.94571 47.6786C10.1637 47.6786 11.9617 45.8406 11.9617 43.5733Z" fill="#73C6D2"/>
<path d="M22.7741 24.1523C22.7741 21.885 20.976 20.047 18.7581 20.047C16.5401 20.047 14.742 21.885 14.742 24.1523C14.742 26.4195 16.5401 28.2575 18.7581 28.2575C20.976 28.2575 22.7741 26.4195 22.7741 24.1523Z" fill="#73C6D2"/>
<path d="M11.9617 17.6786C11.9617 15.4113 10.1637 13.5733 7.94571 13.5733C5.72772 13.5733 3.92969 15.4113 3.92969 17.6786C3.92969 19.9459 5.72772 21.7839 7.94571 21.7839C10.1637 21.7839 11.9617 19.9459 11.9617 17.6786Z" fill="#73C6D2"/>
<path d="M44.5533 37.0996C44.5533 34.8323 42.7552 32.9944 40.5372 32.9944C38.3193 32.9944 36.5212 34.8323 36.5212 37.0996C36.5212 39.3669 38.3193 41.2049 40.5372 41.2049C42.7552 41.2049 44.5533 39.3669 44.5533 37.0996Z" fill="#73C6D2"/>
<path d="M55.5201 43.5733C55.5201 41.3061 53.7221 39.4681 51.5041 39.4681C49.2861 39.4681 47.4881 41.3061 47.4881 43.5733C47.4881 45.8406 49.2861 47.6786 51.5041 47.6786C53.7221 47.6786 55.5201 45.8406 55.5201 43.5733Z" fill="#73C6D2"/>
<path d="M33.5864 17.6786C33.5864 15.4113 31.7884 13.5733 29.5704 13.5733C27.3524 13.5733 25.5544 15.4113 25.5544 17.6786C25.5544 19.9459 27.3524 21.7839 29.5704 21.7839C31.7884 21.7839 33.5864 19.9459 33.5864 17.6786Z" fill="#73C6D2"/>
<path d="M33.5864 4.73124C33.5864 2.46396 31.7884 0.625977 29.5704 0.625977C27.3524 0.625977 25.5544 2.46396 25.5544 4.73124C25.5544 6.99851 27.3524 8.8365 29.5704 8.8365C31.7884 8.8365 33.5864 6.99851 33.5864 4.73124Z" fill="#73C6D2"/>
<path d="M33.5864 43.5733C33.5864 41.3061 31.7884 39.4681 29.5704 39.4681C27.3524 39.4681 25.5544 41.3061 25.5544 43.5733C25.5544 45.8406 27.3524 47.6786 29.5704 47.6786C31.7884 47.6786 33.5864 45.8406 33.5864 43.5733Z" fill="#73C6D2"/>
<path d="M33.5864 56.5207C33.5864 54.2534 31.7884 52.4155 29.5704 52.4155C27.3524 52.4155 25.5544 54.2534 25.5544 56.5207C25.5544 58.788 27.3524 60.626 29.5704 60.626C31.7884 60.626 33.5864 58.788 33.5864 56.5207Z" fill="#73C6D2"/>
</svg>
