<svg width="60" height="61" viewBox="0 0 60 61" fill="none" xmlns="http://www.w3.org/2000/svg">
<path d="M33.686 30.2988C33.686 28.0316 31.888 26.1936 29.67 26.1936C27.452 26.1936 25.654 28.0316 25.654 30.2988C25.654 32.5661 27.452 34.4041 29.67 34.4041C31.888 34.4041 33.686 32.5661 33.686 30.2988Z" fill="#73C6D2"/>
<path d="M44.6529 23.8251C44.6529 21.5578 42.8548 19.7199 40.6368 19.7199C38.4189 19.7199 36.6208 21.5578 36.6208 23.8251C36.6208 26.0924 38.4189 27.9304 40.6368 27.9304C42.8548 27.9304 44.6529 26.0924 44.6529 23.8251Z" fill="#73C6D2"/>
<path d="M55.6197 17.3515C55.6197 15.0842 53.8217 13.2462 51.6037 13.2462C49.3857 13.2462 47.5877 15.0842 47.5877 17.3515C47.5877 19.6187 49.3857 21.4567 51.6037 21.4567C53.8217 21.4567 55.6197 19.6187 55.6197 17.3515Z" fill="#73C6D2"/>
<path d="M22.8737 36.7725C22.8737 34.5052 21.0757 32.6672 18.8577 32.6672C16.6397 32.6672 14.8417 34.5052 14.8417 36.7725C14.8417 39.0397 16.6397 40.8777 18.8577 40.8777C21.0757 40.8777 22.8737 39.0397 22.8737 36.7725Z" fill="#73C6D2"/>
<path d="M12.0613 43.2462C12.0613 40.9789 10.2633 39.1409 8.04532 39.1409C5.82733 39.1409 4.0293 40.9789 4.0293 43.2462C4.0293 45.5135 5.82733 47.3515 8.04532 47.3515C10.2633 47.3515 12.0613 45.5135 12.0613 43.2462Z" fill="#73C6D2"/>
<path d="M22.8737 23.8251C22.8737 21.5578 21.0757 19.7199 18.8577 19.7199C16.6397 19.7199 14.8417 21.5578 14.8417 23.8251C14.8417 26.0924 16.6397 27.9304 18.8577 27.9304C21.0757 27.9304 22.8737 26.0924 22.8737 23.8251Z" fill="#73C6D2"/>
<path d="M12.0613 17.3515C12.0613 15.0842 10.2633 13.2462 8.04532 13.2462C5.82733 13.2462 4.0293 15.0842 4.0293 17.3515C4.0293 19.6187 5.82733 21.4567 8.04532 21.4567C10.2633 21.4567 12.0613 19.6187 12.0613 17.3515Z" fill="#73C6D2"/>
<path d="M44.6529 36.7725C44.6529 34.5052 42.8548 32.6672 40.6368 32.6672C38.4189 32.6672 36.6208 34.5052 36.6208 36.7725C36.6208 39.0397 38.4189 40.8777 40.6368 40.8777C42.8548 40.8777 44.6529 39.0397 44.6529 36.7725Z" fill="#73C6D2"/>
<path d="M55.6197 43.2462C55.6197 40.9789 53.8217 39.1409 51.6037 39.1409C49.3857 39.1409 47.5877 40.9789 47.5877 43.2462C47.5877 45.5135 49.3857 47.3515 51.6037 47.3515C53.8217 47.3515 55.6197 45.5135 55.6197 43.2462Z" fill="#73C6D2"/>
<path d="M33.686 17.3515C33.686 15.0842 31.888 13.2462 29.67 13.2462C27.452 13.2462 25.654 15.0842 25.654 17.3515C25.654 19.6187 27.452 21.4567 29.67 21.4567C31.888 21.4567 33.686 19.6187 33.686 17.3515Z" fill="#73C6D2"/>
<path d="M33.686 4.40409C33.686 2.13681 31.888 0.298828 29.67 0.298828C27.452 0.298828 25.654 2.13681 25.654 4.40409C25.654 6.67136 27.452 8.50935 29.67 8.50935C31.888 8.50935 33.686 6.67136 33.686 4.40409Z" fill="#73C6D2"/>
<path d="M33.686 43.2462C33.686 40.9789 31.888 39.1409 29.67 39.1409C27.452 39.1409 25.654 40.9789 25.654 43.2462C25.654 45.5135 27.452 47.3515 29.67 47.3515C31.888 47.3515 33.686 45.5135 33.686 43.2462Z" fill="#73C6D2"/>
<path d="M33.686 56.1936C33.686 53.9263 31.888 52.0883 29.67 52.0883C27.452 52.0883 25.654 53.9263 25.654 56.1936C25.654 58.4608 27.452 60.2988 29.67 60.2988C31.888 60.2988 33.686 58.4608 33.686 56.1936Z" fill="#73C6D2"/>
</svg>
