<svg width="62" height="61" viewBox="0 0 62 61" fill="none" xmlns="http://www.w3.org/2000/svg">
<path d="M30.0002 12.9291C33.4884 12.9291 36.3161 10.1014 36.3161 6.61323C36.3161 3.12507 33.4884 0.297363 30.0002 0.297363C26.512 0.297363 23.6843 3.12507 23.6843 6.61323C23.6843 10.1014 26.512 12.9291 30.0002 12.9291Z" fill="#73C6D2"/>
<path d="M30.0002 36.6181C33.4884 36.6181 36.3161 33.7903 36.3161 30.3022C36.3161 26.814 33.4884 23.9863 30.0002 23.9863C26.512 23.9863 23.6843 26.814 23.6843 30.3022C23.6843 33.7903 26.512 36.6181 30.0002 36.6181Z" fill="#73C6D2"/>
<path d="M6.31589 36.6181C9.80405 36.6181 12.6318 33.7903 12.6318 30.3022C12.6318 26.814 9.80405 23.9863 6.31589 23.9863C2.82772 23.9863 0 26.814 0 30.3022C0 33.7903 2.82772 36.6181 6.31589 36.6181Z" fill="#73C6D2"/>
<path d="M55.2649 36.6181C58.753 36.6181 61.5807 33.7903 61.5807 30.3022C61.5807 26.814 58.753 23.9863 55.2649 23.9863C51.7767 23.9863 48.949 26.814 48.949 30.3022C48.949 33.7903 51.7767 36.6181 55.2649 36.6181Z" fill="#73C6D2"/>
<path d="M46.5795 16.3323C48.7596 16.3323 50.5269 14.565 50.5269 12.3849C50.5269 10.2048 48.7596 8.4375 46.5795 8.4375C44.3994 8.4375 42.6321 10.2048 42.6321 12.3849C42.6321 14.565 44.3994 16.3323 46.5795 16.3323Z" fill="#73C6D2"/>
<path d="M46.5797 50.8269C48.7598 50.8269 50.5272 49.0596 50.5272 46.8795C50.5272 44.6994 48.7598 42.9321 46.5797 42.9321C44.3996 42.9321 42.6323 44.6994 42.6323 46.8795C42.6323 49.0596 44.3996 50.8269 46.5797 50.8269Z" fill="#73C6D2"/>
<path d="M13.4203 50.8269C15.6004 50.8269 17.3677 49.0596 17.3677 46.8795C17.3677 44.6994 15.6004 42.9321 13.4203 42.9321C11.2402 42.9321 9.4729 44.6994 9.4729 46.8795C9.4729 49.0596 11.2402 50.8269 13.4203 50.8269Z" fill="#73C6D2"/>
<path d="M13.4203 16.3323C15.6004 16.3323 17.3677 14.565 17.3677 12.3849C17.3677 10.2048 15.6004 8.4375 13.4203 8.4375C11.2402 8.4375 9.4729 10.2048 9.4729 12.3849C9.4729 14.565 11.2402 16.3323 13.4203 16.3323Z" fill="#73C6D2"/>
<path d="M30.0002 60.2972C33.4884 60.2972 36.3161 57.4695 36.3161 53.9814C36.3161 50.4932 33.4884 47.6655 30.0002 47.6655C26.512 47.6655 23.6843 50.4932 23.6843 53.9814C23.6843 57.4695 26.512 60.2972 30.0002 60.2972Z" fill="#73C6D2"/>
</svg>
