<svg width="13" height="12" viewBox="0 0 13 12" fill="none" xmlns="http://www.w3.org/2000/svg">
<path opacity="0.3" d="M8.60004 6.66421H11.4759C11.6036 6.66186 11.7303 6.68811 11.8466 6.74102C11.963 6.79393 12.066 6.87217 12.1482 6.97002C12.2304 7.06788 12.2897 7.18286 12.3217 7.30657C12.3538 7.43028 12.3577 7.55959 12.3334 7.68504C12.1333 8.71061 11.6317 9.65315 10.8928 10.392C10.154 11.1309 9.21144 11.6324 8.18587 11.8325C8.06188 11.8566 7.93411 11.853 7.81169 11.8219C7.68926 11.7909 7.57521 11.7331 7.47768 11.6529C7.38015 11.5726 7.30156 11.4718 7.24751 11.3577C7.19347 11.2435 7.1653 11.1188 7.16504 10.9925V8.09921C7.16504 7.71862 7.31623 7.35362 7.58534 7.08451C7.85446 6.81539 8.21945 6.66421 8.60004 6.66421Z" fill="#038A9E"/>
<path opacity="0.3" d="M4.4 6.66421H1.52417C1.3964 6.66186 1.26972 6.68811 1.15339 6.74102C1.03707 6.79393 0.934043 6.87217 0.851848 6.97002C0.769653 7.06788 0.710368 7.18286 0.678328 7.30657C0.646288 7.43028 0.642304 7.55959 0.666667 7.68504C0.866761 8.71061 1.36834 9.65315 2.1072 10.392C2.84606 11.1309 3.7886 11.6324 4.81417 11.8325C4.93816 11.8566 5.06593 11.853 5.18835 11.8219C5.31078 11.7909 5.42483 11.7331 5.52236 11.6529C5.61988 11.5726 5.69848 11.4718 5.75253 11.3577C5.80657 11.2435 5.83474 11.1188 5.835 10.9925V8.09921C5.835 7.71862 5.68381 7.35362 5.4147 7.08451C5.14558 6.81539 4.78059 6.66421 4.4 6.66421Z" fill="#038A9E"/>
<path d="M1.68166 5.99957C1.54454 5.99912 1.40925 5.96809 1.28564 5.90872C1.16204 5.84936 1.05324 5.76316 0.967171 5.65641C0.881103 5.54967 0.819938 5.42506 0.788134 5.29168C0.75633 5.1583 0.754689 5.0195 0.783329 4.88541C1.0511 3.56674 1.76651 2.38118 2.80836 1.52963C3.85021 0.678078 5.15441 0.212891 6.5 0.212891C7.84558 0.212891 9.14978 0.678078 10.1916 1.52963C11.2335 2.38118 11.9489 3.56674 12.2167 4.88541C12.2453 5.0195 12.2437 5.1583 12.2119 5.29168C12.1801 5.42506 12.1189 5.54967 12.0328 5.65641C11.9468 5.76316 11.838 5.84936 11.7143 5.90872C11.5907 5.96809 11.4555 5.99912 11.3183 5.99957H1.68166Z" fill="#038A9E"/>
</svg>
