<svg width="314" height="11" viewBox="0 0 314 11" fill="none" xmlns="http://www.w3.org/2000/svg">
<path d="M312.517 4.35104V7.62315C313.175 7.34603 313.603 6.70135 313.603 5.9871C313.603 5.27285 313.175 4.62817 312.517 4.35104Z" fill="white"/>
<path d="M295.338 3.88988C295.338 3.39292 295.74 2.99005 296.237 2.99005H309.162C309.659 2.99005 310.062 3.39292 310.062 3.88988V8.08909C310.062 8.58605 309.659 8.98892 309.162 8.98892H296.237C295.74 8.98892 295.338 8.58605 295.338 8.08909V3.88988Z" fill="white"/>
<path fill-rule="evenodd" clip-rule="evenodd" d="M283.335 3.21597C285.148 3.21605 286.891 3.91255 288.205 5.16151C288.304 5.25794 288.462 5.25672 288.559 5.15878L289.505 4.20442C289.554 4.15475 289.582 4.08746 289.582 4.01745C289.581 3.94745 289.553 3.88049 289.503 3.8314C286.055 0.526934 280.615 0.526934 277.167 3.8314C277.117 3.88045 277.089 3.94739 277.088 4.0174C277.088 4.08741 277.115 4.15471 277.165 4.20442L278.111 5.15878C278.208 5.25687 278.366 5.25808 278.465 5.16151C279.779 3.91247 281.522 3.21596 283.335 3.21597ZM283.335 6.32093C284.331 6.32087 285.292 6.69105 286.03 7.35955C286.13 7.45443 286.287 7.45237 286.384 7.35492L287.329 6.40055C287.379 6.35049 287.406 6.28258 287.405 6.21202C287.405 6.14145 287.376 6.07411 287.325 6.02508C285.077 3.93388 281.595 3.93388 279.347 6.02508C279.297 6.07411 279.268 6.14148 279.267 6.21207C279.266 6.28266 279.294 6.35056 279.344 6.40055L280.288 7.35492C280.385 7.45237 280.543 7.45443 280.643 7.35955C281.38 6.69149 282.34 6.32134 283.335 6.32093ZM285.227 8.41003C285.229 8.48079 285.201 8.54902 285.15 8.59859L283.517 10.2475C283.469 10.2959 283.403 10.3232 283.335 10.3232C283.267 10.3232 283.202 10.2959 283.154 10.2475L281.52 8.59859C281.469 8.54898 281.442 8.48073 281.443 8.40997C281.445 8.3392 281.475 8.27219 281.528 8.22475C282.571 7.3422 284.099 7.3422 285.143 8.22475C285.195 8.27223 285.226 8.33926 285.227 8.41003Z" fill="white"/>
<path fill-rule="evenodd" clip-rule="evenodd" d="M272.159 1.62947H271.341C270.889 1.62947 270.523 1.99571 270.523 2.4475V9.53708C270.523 9.98886 270.889 10.3551 271.341 10.3551H272.159C272.61 10.3551 272.977 9.98886 272.977 9.53708V2.4475C272.977 1.99571 272.61 1.62947 272.159 1.62947ZM267.523 3.5382H268.341C268.793 3.5382 269.159 3.90445 269.159 4.35623V9.53708C269.159 9.98886 268.793 10.3551 268.341 10.3551H267.523C267.071 10.3551 266.705 9.98886 266.705 9.53708V4.35623C266.705 3.90445 267.071 3.5382 267.523 3.5382ZM264.524 5.44693H263.706C263.254 5.44693 262.888 5.81318 262.888 6.26496V9.53708C262.888 9.98886 263.254 10.3551 263.706 10.3551H264.524C264.976 10.3551 265.342 9.98886 265.342 9.53708V6.26496C265.342 5.81318 264.976 5.44693 264.524 5.44693ZM260.706 7.08299H259.888C259.436 7.08299 259.07 7.44923 259.07 7.90102V9.53708C259.07 9.98886 259.436 10.3551 259.888 10.3551H260.706C261.158 10.3551 261.524 9.98886 261.524 9.53708V7.90102C261.524 7.44923 261.158 7.08299 260.706 7.08299Z" fill="white"/>
<path d="M6.67948 4.69561C6.67948 5.21487 6.64153 5.72414 6.56564 6.22342C6.49374 6.72271 6.36593 7.19004 6.18219 7.62541C6.00245 8.06079 5.75281 8.44624 5.43326 8.78176C5.11771 9.11328 4.71829 9.37291 4.23498 9.56064C3.75167 9.74837 3.16851 9.84224 2.48549 9.84224C2.31373 9.84224 2.11402 9.83225 1.88634 9.81228C1.66266 9.7963 1.47893 9.77234 1.33513 9.74039V8.56607C1.48692 8.61 1.65667 8.64595 1.8444 8.67391C2.03613 8.69788 2.22586 8.70986 2.41359 8.70986C3.15253 8.70986 3.72771 8.57206 4.13912 8.29645C4.55452 8.02085 4.8481 7.64139 5.01986 7.15808C5.1956 6.67478 5.29546 6.12556 5.31943 5.51044H5.24753C5.13169 5.70217 4.9859 5.87792 4.81016 6.03769C4.63441 6.19347 4.41672 6.31928 4.15709 6.41515C3.89746 6.50702 3.58191 6.55295 3.21045 6.55295C2.70717 6.55295 2.2678 6.4471 1.89234 6.2354C1.52087 6.02371 1.23128 5.71615 1.02358 5.31273C0.819872 4.90531 0.718018 4.41601 0.718018 3.84483C0.718018 3.22572 0.835849 2.69248 1.07151 2.24512C1.30717 1.79776 1.6407 1.45425 2.07208 1.2146C2.50346 0.970947 3.01073 0.849121 3.5939 0.849121C4.03327 0.849121 4.43869 0.929007 4.81016 1.08878C5.18562 1.24455 5.51315 1.48421 5.79275 1.80775C6.07235 2.12729 6.29004 2.52872 6.44581 3.01202C6.60159 3.49134 6.67948 4.05253 6.67948 4.69561ZM3.61187 2.01146C3.16851 2.01146 2.80703 2.16124 2.52743 2.46081C2.24783 2.75639 2.10803 3.21174 2.10803 3.82686C2.10803 4.32614 2.22785 4.72157 2.46751 5.01316C2.70717 5.30474 3.07464 5.45053 3.56993 5.45053C3.91344 5.45053 4.20902 5.38063 4.45666 5.24083C4.7083 5.09704 4.90202 4.9153 5.03783 4.69561C5.17763 4.47593 5.24753 4.25225 5.24753 4.02457C5.24753 3.78891 5.21358 3.55325 5.14567 3.31758C5.08177 3.08192 4.98191 2.86623 4.8461 2.67051C4.7103 2.47479 4.53854 2.31702 4.33084 2.19719C4.12713 2.07337 3.88748 2.01146 3.61187 2.01146Z" fill="white"/>
<path d="M7.62452 8.97947C7.62452 8.65194 7.7084 8.42227 7.87616 8.29046C8.04792 8.15466 8.25562 8.08675 8.49927 8.08675C8.74292 8.08675 8.95062 8.15466 9.12238 8.29046C9.29813 8.42227 9.386 8.65194 9.386 8.97947C9.386 9.29902 9.29813 9.53068 9.12238 9.67448C8.95062 9.81428 8.74292 9.88418 8.49927 9.88418C8.25562 9.88418 8.04792 9.81428 7.87616 9.67448C7.7084 9.53068 7.62452 9.29902 7.62452 8.97947ZM7.62452 3.85082C7.62452 3.5193 7.7084 3.28563 7.87616 3.14983C8.04792 3.01402 8.25562 2.94612 8.49927 2.94612C8.74292 2.94612 8.95062 3.01402 9.12238 3.14983C9.29813 3.28563 9.386 3.5193 9.386 3.85082C9.386 4.16637 9.29813 4.39604 9.12238 4.53983C8.95062 4.67963 8.74292 4.74953 8.49927 4.74953C8.25562 4.74953 8.04792 4.67963 7.87616 4.53983C7.7084 4.39604 7.62452 4.16637 7.62452 3.85082Z" fill="white"/>
<path d="M16.5801 7.79916H15.3938V9.72241H14.0038V7.79916H10.0195V6.73269L14.0218 0.938992H15.3938V6.63084H16.5801V7.79916ZM14.0038 6.63084V4.45595C14.0038 4.27621 14.0058 4.09447 14.0098 3.91074C14.0178 3.723 14.0258 3.54326 14.0337 3.37151C14.0417 3.19975 14.0497 3.04198 14.0577 2.89819C14.0657 2.7504 14.0717 2.62857 14.0757 2.53271H14.0278C13.9519 2.69248 13.868 2.85625 13.7761 3.02401C13.6842 3.18777 13.5864 3.34754 13.4825 3.50332L11.3256 6.63084H14.0038Z" fill="white"/>
<path d="M21.084 9.72241H19.6701V4.08449C19.6701 3.89676 19.6721 3.70902 19.6761 3.52129C19.6801 3.33356 19.684 3.14983 19.688 2.97008C19.696 2.79034 19.706 2.61859 19.718 2.45482C19.6341 2.54669 19.5303 2.64655 19.4064 2.75439C19.2866 2.86224 19.1588 2.97408 19.023 3.08991L18.0164 3.89276L17.3095 3.00004L19.9097 0.962958H21.084V9.72241Z" fill="white"/>
</svg>
