<svg width="18" height="12" viewBox="0 0 20 14" fill="none" xmlns="http://www.w3.org/2000/svg">
<path d="M19.3637 6.34287L13.7637 0.729537C13.6736 0.644173 13.5606 0.586863 13.4384 0.564588C13.3163 0.542312 13.1904 0.556033 13.0759 0.604079C12.9614 0.652124 12.8634 0.732421 12.7938 0.835187C12.7242 0.937953 12.6859 1.05875 12.6837 1.18287V5.78287H1.81704C1.55182 5.78287 1.29747 5.88823 1.10994 6.07576C0.922399 6.2633 0.817041 6.51765 0.817041 6.78287C0.817041 7.04809 0.922399 7.30244 1.10994 7.48998C1.29747 7.67751 1.55182 7.78287 1.81704 7.78287H12.6837V12.3829C12.6859 12.507 12.7242 12.6278 12.7938 12.7306C12.8634 12.8333 12.9614 12.9136 13.0759 12.9617C13.1904 13.0097 13.3163 13.0234 13.4384 13.0012C13.5606 12.9789 13.6736 12.9216 13.7637 12.8362L19.3637 7.22287C19.4243 7.1667 19.4726 7.09863 19.5057 7.02292C19.5387 6.94721 19.5558 6.86548 19.5558 6.78287C19.5558 6.70026 19.5387 6.61853 19.5057 6.54282C19.4726 6.46711 19.4243 6.39904 19.3637 6.34287Z" fill="white"/>
</svg>
