<svg width="18" height="12" viewBox="0 0 20 14" fill="none" xmlns="http://www.w3.org/2000/svg">
<path d="M0.636316 6.34287L6.23632 0.729537C6.32645 0.644173 6.43945 0.586863 6.56157 0.564588C6.6837 0.542312 6.80966 0.556033 6.92412 0.604079C7.03858 0.652124 7.1366 0.732421 7.20624 0.835187C7.27587 0.937953 7.31412 1.05875 7.31632 1.18287V5.78287H18.183C18.4482 5.78287 18.7026 5.88823 18.8901 6.07576C19.0776 6.2633 19.183 6.51765 19.183 6.78287C19.183 7.04809 19.0776 7.30244 18.8901 7.48998C18.7026 7.67751 18.4482 7.78287 18.183 7.78287H7.31632V12.3829C7.31412 12.507 7.27587 12.6278 7.20624 12.7306C7.1366 12.8333 7.03858 12.9136 6.92412 12.9617C6.80966 13.0097 6.6837 13.0234 6.56157 13.0012C6.43945 12.9789 6.32645 12.9216 6.23632 12.8362L0.636316 7.22287C0.575733 7.1667 0.527403 7.09863 0.494352 7.02292C0.4613 6.94721 0.444239 6.86548 0.444239 6.78287C0.444239 6.70026 0.4613 6.61853 0.494352 6.54282C0.527403 6.46711 0.575733 6.39904 0.636316 6.34287Z" fill="white"/>
</svg>
