<svg width="60" height="60" viewBox="0 0 60 60" fill="none" xmlns="http://www.w3.org/2000/svg">
<circle cx="30.1294" cy="30.3223" r="29.5" fill="#064A71" fill-opacity="0.2"/>
<g filter="url(#filter0_d_243_25403)">
<path d="M33.3672 35.9347C32.6171 36.9962 31.8398 37.9629 31.0569 38.8143C33.2691 40.9628 35.3265 41.9689 36.4679 41.3094C37.6094 40.6498 37.7675 38.3637 37.0144 35.3722C35.886 35.625 34.661 35.8153 33.3672 35.9347ZM31.6343 36.05C31.1397 36.0706 30.6376 36.081 30.1293 36.081C29.6211 36.081 29.119 36.0706 28.6245 36.05C29.1228 36.7018 29.6273 37.3056 30.1293 37.8558C30.6313 37.3056 31.1359 36.7018 31.6343 36.05ZM38.3023 25.6C41.8273 26.612 44.1294 28.2933 44.1294 30.3223C44.1294 32.3512 41.8273 34.0326 38.3023 35.0446C39.1891 38.6056 38.8852 41.4414 37.1294 42.4558C35.3736 43.4703 32.7676 42.3158 30.1293 39.7667C27.4912 42.3158 24.8852 43.4703 23.1294 42.4558C21.3736 41.4414 21.0696 38.6056 21.9564 35.0446C18.4315 34.0326 16.1294 32.3512 16.1294 30.3223C16.1294 28.2933 18.4315 26.612 21.9564 25.6C21.0696 22.039 21.3736 19.2032 23.1294 18.1887C24.8852 17.1742 27.4912 18.3287 30.1293 20.8778C32.7676 18.3287 35.3736 17.1742 37.1294 18.1887C38.8852 19.2032 39.1891 22.039 38.3023 25.6ZM37.0144 25.2724C37.7675 22.2809 37.6094 19.9947 36.4679 19.3352C35.3265 18.6757 33.2691 19.6817 31.0569 21.8302C31.8398 22.6817 32.6171 23.6483 33.3672 24.7098C34.661 24.8292 35.886 25.0196 37.0144 25.2724ZM23.2443 35.3722C22.4912 38.3637 22.6493 40.6498 23.7908 41.3094C24.9323 41.9689 26.9897 40.9628 29.2019 38.8143C28.4189 37.9629 27.6416 36.9962 26.8915 35.9347C25.5978 35.8153 24.3726 35.625 23.2443 35.3722ZM28.6245 24.5945C29.119 24.574 29.6211 24.5636 30.1293 24.5636C30.6376 24.5636 31.1397 24.574 31.6343 24.5945C31.1359 23.9428 30.6313 23.3389 30.1293 22.7888C29.6273 23.3389 29.1228 23.9428 28.6245 24.5945ZM26.8915 24.7098C27.6416 23.6483 28.4189 22.6817 29.2019 21.8302C26.9897 19.6817 24.9323 18.6757 23.7908 19.3352C22.6493 19.9947 22.4912 22.2809 23.2443 25.2724C24.3726 25.0196 25.5978 24.8292 26.8915 24.7098ZM32.6342 34.6642C33.0914 33.9932 33.5381 33.2833 33.9671 32.5397C34.3961 31.796 34.787 31.054 35.1392 30.3223C34.787 29.5905 34.3961 28.8485 33.9671 28.1049C33.5381 27.3612 33.0914 26.6514 32.6342 25.9803C31.8249 25.9196 30.9875 25.8874 30.1293 25.8874C29.2713 25.8874 28.4337 25.9196 27.6244 25.9803C27.1673 26.6514 26.7206 27.3612 26.2916 28.1049C25.8626 28.8485 25.4716 29.5905 25.1195 30.3223C25.4716 31.054 25.8626 31.796 26.2916 32.5397C26.7206 33.2833 27.1673 33.9932 27.6244 34.6642C28.4337 34.7249 29.2713 34.7572 30.1293 34.7572C30.9875 34.7572 31.8249 34.7249 32.6342 34.6642ZM34.3336 34.4904C35.1467 34.3844 35.9215 34.2491 36.6486 34.089C36.4235 33.3788 36.1532 32.6397 35.8384 31.8819C35.6089 32.3208 35.3668 32.7611 35.1127 33.2017C34.8586 33.6421 34.5985 34.0721 34.3336 34.4904ZM25.9252 26.1541C25.1121 26.2602 24.3372 26.3955 23.6101 26.5555C23.8352 27.2657 24.1055 28.0049 24.4203 28.7627C24.6498 28.3239 24.8919 27.8834 25.146 27.4429C25.4001 27.0024 25.6602 26.5725 25.9252 26.1541ZM23.6101 34.089C24.3372 34.2491 25.1121 34.3844 25.9252 34.4904C25.6602 34.0721 25.4001 33.6421 25.146 33.2017C24.8919 32.7611 24.6498 32.3208 24.4203 31.8819C24.1055 32.6397 23.8352 33.3788 23.6101 34.089ZM22.3168 33.7644C22.6622 32.6602 23.1101 31.5032 23.6536 30.3223C23.1101 29.1413 22.6622 27.9844 22.3168 26.8801C19.3515 27.7231 17.4522 29.0032 17.4522 30.3223C17.4522 31.6413 19.3515 32.9214 22.3168 33.7644ZM36.6486 26.5555C35.9215 26.3955 35.1467 26.2602 34.3336 26.1541C34.5985 26.5725 34.8586 27.0024 35.1127 27.4429C35.3668 27.8834 35.6089 28.3239 35.8384 28.7627C36.1532 28.0049 36.4235 27.2657 36.6486 26.5555ZM37.942 26.8801C37.5965 27.9844 37.1487 29.1413 36.6051 30.3223C37.1487 31.5032 37.5965 32.6602 37.942 33.7644C40.9072 32.9214 42.8066 31.6413 42.8066 30.3223C42.8066 29.0032 40.9072 27.7231 37.942 26.8801ZM30.1293 32.8099C28.7565 32.8099 27.6436 31.6962 27.6436 30.3223C27.6436 28.9483 28.7565 27.8346 30.1293 27.8346C31.5023 27.8346 32.6152 28.9483 32.6152 30.3223C32.6152 31.6962 31.5023 32.8099 30.1293 32.8099Z" fill="#ECECEC"/>
</g>
<defs>
<filter id="filter0_d_243_25403" x="6.12939" y="11.8223" width="48" height="45" filterUnits="userSpaceOnUse" color-interpolation-filters="sRGB">
<feFlood flood-opacity="0" result="BackgroundImageFix"/>
<feColorMatrix in="SourceAlpha" type="matrix" values="0 0 0 0 0 0 0 0 0 0 0 0 0 0 0 0 0 0 127 0" result="hardAlpha"/>
<feOffset dy="4"/>
<feGaussianBlur stdDeviation="5"/>
<feComposite in2="hardAlpha" operator="out"/>
<feColorMatrix type="matrix" values="0 0 0 0 0.452605 0 0 0 0 0.776223 0 0 0 0 0.824167 0 0 0 1 0"/>
<feBlend mode="normal" in2="BackgroundImageFix" result="effect1_dropShadow_243_25403"/>
<feBlend mode="normal" in="SourceGraphic" in2="effect1_dropShadow_243_25403" result="shape"/>
</filter>
</defs>
</svg>
