<svg width="121" height="16" viewBox="0 0 121 16" fill="none" xmlns="http://www.w3.org/2000/svg">
<path d="M73.345 0.95752H79.5925C81.9725 0.95752 83.9062 2.89127 83.9062 5.27127V11.5188C83.9062 12.6629 83.4518 13.7601 82.6428 14.5691C81.8338 15.3781 80.7366 15.8325 79.5925 15.8325H73.345C70.965 15.8325 69.0312 13.8988 69.0312 11.5188V5.27127C69.0312 4.12719 69.4857 3.02997 70.2947 2.22099C71.1037 1.412 72.2009 0.95752 73.345 0.95752ZM73.1962 2.44502C72.4862 2.44502 71.8051 2.72711 71.303 3.22924C70.8008 3.73137 70.5187 4.41245 70.5187 5.12252V11.6675C70.5187 13.1476 71.7162 14.345 73.1962 14.345H79.7413C80.4513 14.345 81.1324 14.0629 81.6345 13.5608C82.1367 13.0587 82.4188 12.3776 82.4188 11.6675V5.12252C82.4188 3.64246 81.2213 2.44502 79.7413 2.44502H73.1962ZM80.3734 3.56064C80.62 3.56064 80.8564 3.6586 81.0308 3.83294C81.2052 4.0073 81.3031 4.24373 81.3031 4.49033C81.3031 4.73694 81.2052 4.97334 81.0308 5.1477C80.8564 5.32206 80.62 5.42002 80.3734 5.42002C80.1268 5.42002 79.8904 5.32206 79.7161 5.1477C79.5417 4.97334 79.4437 4.73694 79.4437 4.49033C79.4437 4.24373 79.5417 4.0073 79.7161 3.83294C79.8904 3.6586 80.1268 3.56064 80.3734 3.56064ZM76.4688 4.67627C77.4551 4.67627 78.4009 5.06801 79.0983 5.76544C79.7958 6.46286 80.1875 7.4087 80.1875 8.39502C80.1875 9.38134 79.7958 10.3272 79.0983 11.0246C78.4009 11.722 77.4551 12.1138 76.4688 12.1138C75.4824 12.1138 74.5366 11.722 73.8392 11.0246C73.1417 10.3272 72.75 9.38134 72.75 8.39502C72.75 7.4087 73.1417 6.46286 73.8392 5.76544C74.5366 5.06801 75.4824 4.67627 76.4688 4.67627ZM76.4688 6.16377C75.8769 6.16377 75.3095 6.39879 74.891 6.81731C74.4725 7.23573 74.2375 7.80321 74.2375 8.39502C74.2375 8.98683 74.4725 9.55431 74.891 9.97273C75.3095 10.3912 75.8769 10.6263 76.4688 10.6263C77.0606 10.6263 77.628 10.3912 78.0465 9.97273C78.465 9.55431 78.7 8.98683 78.7 8.39502C78.7 7.80321 78.465 7.23573 78.0465 6.81731C77.628 6.39879 77.0606 6.16377 76.4688 6.16377Z" fill="white"/>
<path d="M47.7812 0.95752V3.93252H46.2938C45.7806 3.93252 45.55 4.53496 45.55 5.04814V6.90752H47.7812V9.88252H45.55V15.8325H42.575V9.88252H40.3438V6.90752H42.575V3.93252C42.575 3.1435 42.8884 2.38679 43.4464 1.82888C44.0043 1.27096 44.761 0.95752 45.55 0.95752H47.7812Z" fill="white"/>
<path d="M7.9375 12.5786V4.21143L13.5156 8.39502L7.9375 12.5786ZM17.2344 1.32939C16.6766 1.14346 13.2367 0.95752 9.79688 0.95752C6.35703 0.95752 2.91719 1.13416 2.35938 1.3108C0.909063 1.79424 0.5 5.04814 0.5 8.39502C0.5 11.7325 0.909063 14.9958 2.35938 15.47C2.91719 15.6559 6.35703 15.8325 9.79688 15.8325C13.2367 15.8325 16.6766 15.6559 17.2344 15.47C18.6847 14.9958 19.0938 11.7325 19.0938 8.39502C19.0938 5.04814 18.6847 1.80354 17.2344 1.32939Z" fill="white"/>
<path d="M118.378 0.95752C118.817 0.95752 119.237 1.13165 119.547 1.4416C119.857 1.75156 120.031 2.17196 120.031 2.6103V14.1797C120.031 14.6181 119.857 15.0385 119.547 15.3484C119.237 15.6584 118.817 15.8325 118.378 15.8325H106.809C106.371 15.8325 105.95 15.6584 105.64 15.3484C105.33 15.0385 105.156 14.6181 105.156 14.1797V2.6103C105.156 2.17196 105.33 1.75156 105.64 1.4416C105.95 1.13165 106.371 0.95752 106.809 0.95752H118.378ZM117.965 13.7666V9.38665C117.965 8.67223 117.681 7.98691 117.176 7.48169C116.671 6.97648 115.986 6.69268 115.271 6.69268C114.569 6.69268 113.751 7.12236 113.354 7.76698V6.84972H111.048V13.7666H113.354V9.69244C113.354 9.05611 113.866 8.53548 114.503 8.53548C114.81 8.53548 115.104 8.65735 115.321 8.87442C115.538 9.09138 115.66 9.38559 115.66 9.69244V13.7666H117.965ZM108.363 5.55219C108.731 5.55219 109.084 5.40599 109.344 5.14558C109.605 4.88526 109.751 4.53209 109.751 4.16393C109.751 3.39536 109.131 2.76731 108.363 2.76731C107.992 2.76731 107.637 2.91445 107.375 3.17637C107.113 3.43828 106.966 3.79351 106.966 4.16393C106.966 4.93244 107.594 5.55219 108.363 5.55219ZM109.511 13.7666V6.84972H107.222V13.7666H109.511Z" fill="white"/>
</svg>
